<svg id="Ebene_1" data-name="Ebene 1" xmlns="http://www.w3.org/2000/svg" viewBox="0 0 257 45.66"><title>170504_Beekeeper_Logo_rgb_vector</title><path d="M94.72,34a5.53,5.53,0,0,1,4.07,5.44c0,4-3.48,6.24-7.7,6.24H81.82V22.84H91.3c4.25,0,7,2.4,7,5.94a5.33,5.33,0,0,1-3.53,5.14Zm-9.93-8.53v7.43h6.42c2.29,0,4-1.25,4-3.74s-1.72-3.69-4-3.69Zm6.81,17.6c2.31,0,4.16-1.25,4.16-3.81S94,35.47,91.6,35.47H84.79v7.58Z" transform="translate(-19.44 -11.42)" style="fill:#1d1d1b"/><path d="M105.54,45.66V22.84h14.65v2.61H108.51v7.43h10.22v2.59H108.51v7.58H120.4v2.61Z" transform="translate(-19.44 -11.42)" style="fill:#1d1d1b"/><path d="M126.94,45.66V22.84h14.65v2.61H129.91v7.43h10.22v2.59H129.91v7.58H141.8v2.61Z" transform="translate(-19.44 -11.42)" style="fill:#1d1d1b"/><path d="M155.65,35.47h-4.31V45.66h-3V22.84h3v10h4.37l6.12-10h3.42l-7,11.26,7.28,11.56H162Z" transform="translate(-19.44 -11.42)" style="fill:#1d1d1b"/><path d="M171.43,45.66V22.84h14.65v2.61H174.4v7.43h10.23v2.59H174.4v7.58h11.89v2.61Z" transform="translate(-19.44 -11.42)" style="fill:#1d1d1b"/><path d="M192.83,45.66V22.84h14.65v2.61H195.8v7.43H206v2.59H195.8v7.58h11.89v2.61Z" transform="translate(-19.44 -11.42)" style="fill:#1d1d1b"/><path d="M223.24,22.84c4.66,0,8.2,2.64,8.2,7.34s-3.63,7.43-8.29,7.43h-5.92v8h-3V22.84ZM223.35,35c2.89,0,5-1.6,5-4.75s-2.2-4.79-5-4.79h-6.12V35Z" transform="translate(-19.44 -11.42)" style="fill:#1d1d1b"/><path d="M238,45.66V22.84H252.6v2.61H240.92v7.43h10.22v2.59H240.92v7.58h11.89v2.61Z" transform="translate(-19.44 -11.42)" style="fill:#1d1d1b"/><path d="M268.41,36.06h-6.06v9.6h-3V22.84h9.3c4.22,0,7.34,2.4,7.34,6.54a6.09,6.09,0,0,1-4.58,6l5,10.28h-3.39Zm-6.06-2.61h6.24c2.44,0,4.37-1.31,4.37-4s-1.87-4-4.34-4h-6.27Z" transform="translate(-19.44 -11.42)" style="fill:#1d1d1b"/><polygon points="19.77 0 0 11.42 19.77 22.83 19.77 0" style="fill:#a4d9e6"/><polygon points="19.77 22.83 39.55 11.42 19.77 0 19.77 22.83 19.77 22.83" style="fill:#76c9da"/><polygon points="18.39 23.36 18.39 23.36 18.39 23.36 18.39 23.36" style="fill:#fff"/><polygon points="19.77 22.83 0 11.42 0 34.25 19.77 22.83 19.77 22.83" style="fill:#d2ebf4"/><polygon points="19.77 22.83 0 34.25 19.77 45.66 39.55 34.25 39.55 11.42 19.77 22.83" style="fill:#00abc2"/></svg>